<svg width="1920" height="1080" viewBox="0 0 1920 1080" fill="none" xmlns="http://www.w3.org/2000/svg">
<g clip-path="url(#clip0_9234_15263)">
<rect width="1920" height="1080" fill="#1C1822"/>
<g clip-path="url(#clip1_9234_15263)">
<rect width="1920" height="1080" fill="#1C1822"/>
<g opacity="0.25">
<path d="M1676.3 490.355L1071.18 -114.77" stroke="url(#paint0_linear_9234_15263)" stroke-width="255.41" stroke-linecap="round"/>
<path d="M941.508 299.125L336.383 -306" stroke="url(#paint1_linear_9234_15263)" stroke-width="255.41" stroke-linecap="round"/>
<path d="M1092.13 1212.05L978.181 1098.1" stroke="url(#paint2_linear_9234_15263)" stroke-width="255.41" stroke-linecap="round"/>
<path d="M1823 1137.39L1233.59 547.987" stroke="url(#paint3_linear_9234_15263)" stroke-width="255.41" stroke-linecap="round"/>
<path d="M1394.7 1299.81L789.57 694.683" stroke="url(#paint4_linear_9234_15263)" stroke-width="255.41" stroke-linecap="round"/>
<path d="M703.125 1098.1L97.9997 492.974" stroke="url(#paint5_linear_9234_15263)" stroke-width="255.41" stroke-linecap="round"/>
<path opacity="0.78" d="M-2 0H1920V1080H-2V0Z" fill="url(#paint6_linear_9234_15263)"/>
</g>
<path d="M1387.28 93.1683C1386.94 92.8202 1386.26 92.8202 1386.26 92.472C1386.26 92.472 1386.26 92.1239 1386.6 92.1239C1386.94 91.7758 1387.62 91.7758 1388.3 92.1239C1388.63 92.4721 1389.31 92.8202 1389.31 93.1683C1389.31 93.5164 1388.63 93.5164 1388.3 93.5164C1387.96 93.5164 1387.62 93.1683 1387.28 93.1683ZM1379.83 93.5164C1379.49 93.8646 1379.15 93.5164 1379.15 93.1683C1378.81 92.8202 1379.83 92.4721 1380.17 92.1239C1380.84 91.7758 1381.52 91.7758 1381.86 92.1239C1382.2 92.1239 1382.2 92.472 1382.2 92.472C1382.2 92.8202 1381.52 92.8202 1380.84 93.1683C1380.5 93.1683 1380.5 93.5164 1379.83 93.5164ZM1455.03 190.645C1458.76 195.171 1460.11 198.304 1460.11 201.089C1460.11 203.874 1458.08 205.963 1455.37 207.355C1450.29 210.489 1442.83 212.926 1438.09 218.496C1433.35 224.414 1427.59 227.895 1421.83 228.243C1416.07 228.94 1410.99 226.155 1408.28 220.236C1407.94 219.54 1407.6 218.844 1407.27 218.148C1400.15 218.496 1393.72 216.059 1388.63 216.407C1381.18 217.103 1376.44 218.844 1372.37 218.844C1370.68 222.673 1367.29 225.11 1363.57 225.806C1358.15 227.199 1351.37 225.806 1344.6 222.325C1338.16 218.844 1330.37 219.192 1324.61 217.799C1321.56 217.451 1318.85 216.059 1317.84 213.622C1316.48 211.185 1316.82 207.704 1318.51 202.482C1318.85 200.741 1318.51 198.304 1318.17 195.519C1317.84 194.126 1317.84 192.734 1317.84 191.341C1317.84 189.601 1317.84 188.208 1318.85 186.816C1320.21 184.031 1322.58 182.638 1324.95 181.942C1327.32 180.897 1329.35 180.549 1330.71 179.157C1332.4 177.068 1334.1 173.935 1336.47 171.846C1335.45 165.928 1336.47 159.661 1338.5 153.395C1342.56 140.166 1351.71 127.633 1358.15 119.626C1363.57 111.619 1365.26 105.353 1365.6 97.3459C1366.28 86.2057 1357.47 50 1392.02 50C1419.46 50.3481 1418.11 79.9393 1417.77 95.9534C1417.77 106.397 1423.19 113.36 1429.28 121.019C1434.37 127.285 1441.14 136.337 1444.87 146.781C1447.92 155.484 1449.27 164.883 1446.22 174.283C1446.56 174.631 1447.24 174.631 1447.58 174.979C1447.92 175.327 1448.59 175.675 1448.93 176.024C1450.96 178.112 1451.98 180.897 1452.32 184.031C1453 186.816 1453.67 189.253 1455.03 190.645ZM1388.3 80.6356C1387.28 83.0725 1386.94 85.8576 1387.28 88.2945C1388.63 88.2945 1390.33 88.9907 1391.68 89.687C1391.01 85.5094 1393.38 81.3318 1395.75 81.68C1398.8 81.68 1400.49 86.9019 1398.8 91.0795C1398.46 91.7758 1397.78 92.472 1397.44 92.8202C1399.81 93.5164 1401.17 94.2127 1401.85 94.5608C1404.56 91.0795 1405.57 85.5094 1403.2 80.2874C1399.81 72.9767 1391.68 72.9767 1388.3 80.6356ZM1374.75 76.458C1368.31 76.458 1366.62 89.687 1371.7 94.5608C1374.41 92.8202 1374.07 93.1683 1373.73 92.8202C1371.02 90.3833 1371.36 83.0725 1374.41 83.0725C1376.44 82.7244 1378.13 86.5538 1377.46 89.687C1378.81 88.9907 1379.83 88.6426 1381.18 88.2945C1381.52 81.3318 1378.13 76.458 1374.75 76.458ZM1370 97.694C1368.65 98.7384 1367.97 100.131 1368.65 101.872C1368.99 103.612 1370.68 105.701 1373.39 107.442C1376.1 108.834 1377.46 111.271 1380.17 112.664C1381.18 113.012 1382.2 113.012 1383.55 113.36C1389.65 113.708 1392.7 109.182 1396.43 108.138C1400.49 106.745 1403.2 104.309 1404.22 101.872C1405.23 98.7384 1403.54 96.6496 1400.49 95.2571C1396.76 93.8646 1395.07 93.5164 1393.04 92.1239C1389.65 90.0351 1386.6 88.9907 1384.23 88.9907C1379.49 88.9907 1376.44 92.4721 1374.75 93.8646C1374.75 94.2127 1372.04 95.9534 1370 97.694ZM1371.02 213.97C1371.7 206.659 1360.52 196.912 1357.13 189.949L1350.69 177.416C1348.32 174.283 1345.95 172.542 1343.24 171.846C1340.53 171.498 1338.84 172.542 1337.14 174.283C1335.45 176.024 1334.1 178.809 1332.4 180.549C1329.69 182.986 1329.01 182.986 1325.63 184.031C1323.59 184.727 1321.9 185.771 1320.55 188.208C1319.87 189.949 1319.87 192.386 1320.21 195.171C1320.88 197.608 1321.22 200.741 1320.55 203.178V203.526C1318.85 208.052 1318.85 210.837 1319.53 212.577C1322.24 217.799 1335.45 214.666 1345.61 220.236C1356.11 225.806 1370.34 226.155 1371.02 213.97ZM1370.68 204.919C1383.21 213.97 1398.46 210.489 1409.3 202.482C1410.31 198.652 1411.33 195.171 1411.67 192.386C1412.01 187.164 1412.35 182.29 1413.02 178.461C1414.04 173.935 1416.41 170.454 1420.48 169.061C1421.15 161.75 1426.57 161.75 1433.35 164.535C1439.79 167.668 1442.16 170.105 1441.14 173.587C1441.48 173.587 1441.82 173.587 1442.5 173.587C1444.19 167.668 1437.75 163.839 1431.99 161.402C1433.01 157.225 1433.01 153.047 1431.99 149.217C1429.96 140.166 1424.2 132.507 1420.14 128.678C1419.12 128.678 1419.46 129.374 1420.82 130.767C1424.88 134.596 1433.35 147.825 1428.95 160.358C1427.59 160.01 1426.24 160.01 1425.22 160.01C1423.19 149.914 1419.12 141.559 1417.09 137.381C1413.36 130.07 1407.27 114.752 1404.56 103.96C1402.86 106.397 1400.49 108.138 1397.1 109.182C1395.41 109.879 1393.72 111.271 1391.68 112.316C1386.94 115.101 1381.52 115.449 1377.12 111.967C1375.76 110.923 1374.41 109.53 1373.05 108.486C1372.37 108.138 1371.36 107.442 1371.02 107.094C1370.34 120.323 1361.53 136.685 1357.47 146.432C1354.76 153.047 1353.07 160.358 1352.73 167.668C1345.61 157.573 1351.03 144.692 1353.74 139.122C1357.13 132.855 1357.47 131.115 1356.79 131.811C1353.74 136.685 1349.34 144.344 1347.65 152.351C1346.63 156.528 1346.29 160.706 1347.65 164.535C1348.66 168.365 1351.37 172.194 1355.78 174.979C1355.78 174.979 1364.24 179.853 1368.99 186.468C1371.36 189.949 1372.04 192.734 1371.36 195.171C1370.68 197.26 1368.31 197.956 1365.6 197.956C1367.29 200.045 1369.33 202.482 1370.68 204.919ZM1457.74 201.089C1458.08 199 1456.72 196.563 1453.34 192.386C1449.95 188.556 1450.63 180.897 1447.24 177.764C1445.21 175.675 1442.83 176.024 1439.79 176.024C1437.08 179.157 1430.98 182.986 1426.57 181.942C1422.85 180.897 1420.48 176.024 1420.48 171.498C1420.14 171.498 1420.14 171.498 1420.14 171.846C1417.77 172.89 1416.41 175.327 1415.4 179.157C1414.38 182.638 1414.38 187.164 1414.04 192.386C1413.7 196.563 1412.01 201.785 1410.65 206.659C1409.3 211.185 1408.62 215.362 1410.31 219.192C1412.69 224.414 1416.75 226.503 1421.49 226.155C1426.57 225.458 1431.99 222.673 1436.4 217.103C1443.85 207.704 1457.4 206.659 1457.74 201.089ZM1371.36 101.872C1370 100.827 1370.34 99.7828 1370.68 99.7828C1371.7 99.7828 1371.7 100.827 1372.04 101.523C1372.71 101.872 1373.73 102.916 1374.75 103.612C1376.78 105.353 1379.83 107.094 1383.21 107.094C1386.6 107.094 1391.01 105.005 1393.38 103.612C1394.73 102.916 1396.43 101.175 1398.12 100.131C1399.14 99.4347 1399.14 98.3903 1400.15 98.3903C1401.17 98.3903 1400.49 99.4347 1399.14 100.827C1397.78 101.872 1395.75 103.264 1394.05 104.309C1391.01 106.049 1387.28 108.138 1383.21 108.138C1379.49 108.138 1376.1 106.049 1374.07 104.309C1373.05 103.612 1372.04 102.568 1371.36 101.872Z" fill="#FA0B53"/>
</g>
<path d="M645 284L1150 294.5L1152 480.5L1195.5 478.5L1239 520V711H645V284Z" fill="#1C1822"/>
<rect x="846" y="711" width="185" height="120" fill="#1C1822"/>
<circle cx="746.166" cy="432.198" r="23.386" transform="rotate(-150 746.166 432.198)" fill="#FA0B53" stroke="#FA0B53" stroke-width="12" stroke-linecap="round"/>
<circle cx="902.471" cy="282.143" r="23.386" transform="rotate(-150 902.471 282.143)" fill="#231824" stroke="#FA0B53" stroke-width="12" stroke-linecap="round"/>
<circle cx="903.724" cy="608.514" r="23.386" transform="rotate(-150 903.724 608.514)" fill="#231824" stroke="#FA0B53" stroke-width="12" stroke-linecap="round"/>
<mask id="path-14-inside-1_9234_15263" fill="white">
<rect x="981.738" y="289.391" width="175.659" height="289.105" rx="6"/>
</mask>
<rect x="981.738" y="289.391" width="175.659" height="289.105" rx="6" stroke="#FA0B53" stroke-width="24" stroke-linecap="round" mask="url(#path-14-inside-1_9234_15263)"/>
<path d="M903.059 307.648V340.487C903.059 342.079 903.691 343.605 904.816 344.73L943.386 383.3C944.511 384.425 946.038 385.058 947.629 385.058H1014.68" stroke="#FA0B53" stroke-width="12" stroke-linecap="round"/>
<path d="M903.059 582.672V523.86C903.059 522.268 903.691 520.742 904.816 519.617L943.386 481.047C944.511 479.921 946.038 479.289 947.629 479.289H1014.68" stroke="#FA0B53" stroke-width="12" stroke-linecap="round"/>
<path d="M774.801 432.066L1014.67 431.713" stroke="#FA0B53" stroke-width="12" stroke-linecap="round"/>
<path d="M1042.12 243.248L1042.12 318.269" stroke="#FA0B53" stroke-width="12" stroke-linecap="round"/>
<path d="M1237.91 302.648V340.489C1237.91 342.081 1237.28 343.607 1236.15 344.732L1197.58 383.302C1196.46 384.427 1194.93 385.059 1193.34 385.059H1126.29" stroke="#FA0B53" stroke-width="12" stroke-linecap="round"/>
<path d="M1237.91 582.672V523.86C1237.91 522.268 1237.28 520.742 1236.15 519.617L1197.58 481.047C1196.46 479.921 1194.93 479.289 1193.34 479.289H1126.29" stroke="#FA0B53" stroke-width="12" stroke-linecap="round"/>
<path d="M1279.99 431.719L1126.29 431.719" stroke="#FA0B53" stroke-width="12" stroke-linecap="round"/>
<path d="M1098.84 243.248L1098.84 318.269" stroke="#FA0B53" stroke-width="12" stroke-linecap="round"/>
<path d="M851.078 282.633H647C643.686 282.633 641 285.319 641 288.633V704.619C641 707.933 643.686 710.619 647 710.619H1232.28C1235.59 710.619 1238.28 707.933 1238.28 704.619V622.768M847.052 710.619V838.204M847.052 838.204H1028.86M847.052 838.204H747.393M1028.86 838.204V710.619M1028.86 838.204H1130.54" stroke="#FA0B53" stroke-width="12" stroke-linecap="round"/>
<path opacity="0.25" d="M865.46 312.652H676.387C673.073 312.652 670.387 315.339 670.387 318.652V670.538C670.387 673.852 673.073 676.538 676.387 676.538H1200.21C1203.53 676.538 1206.21 673.852 1206.21 670.538V525.232" stroke="#FA0B53" stroke-width="12" stroke-linecap="round"/>
</g>
<defs>
<linearGradient id="paint0_linear_9234_15263" x1="1666.76" y1="499.904" x2="1061.63" y2="-105.221" gradientUnits="userSpaceOnUse">
<stop stop-color="#FA0B53" stop-opacity="0.8"/>
<stop offset="1" stop-color="#FA0B53" stop-opacity="0.1"/>
</linearGradient>
<linearGradient id="paint1_linear_9234_15263" x1="931.959" y1="308.674" x2="326.834" y2="-296.451" gradientUnits="userSpaceOnUse">
<stop stop-color="#FA0B53" stop-opacity="0.5"/>
<stop offset="1" stop-color="#FA0B53" stop-opacity="0.1"/>
</linearGradient>
<linearGradient id="paint2_linear_9234_15263" x1="1082.58" y1="1221.6" x2="968.632" y2="1107.65" gradientUnits="userSpaceOnUse">
<stop stop-color="#FA0B53" stop-opacity="0.8"/>
<stop offset="1" stop-color="#FA0B53" stop-opacity="0.1"/>
</linearGradient>
<linearGradient id="paint3_linear_9234_15263" x1="1813.45" y1="1146.94" x2="1224.04" y2="557.536" gradientUnits="userSpaceOnUse">
<stop stop-color="#FA0B53" stop-opacity="0.8"/>
<stop offset="1" stop-color="#FA0B53" stop-opacity="0.1"/>
</linearGradient>
<linearGradient id="paint4_linear_9234_15263" x1="1385.15" y1="1309.36" x2="780.021" y2="704.232" gradientUnits="userSpaceOnUse">
<stop stop-color="#FA0B53" stop-opacity="0.8"/>
<stop offset="1" stop-color="#FA0B53" stop-opacity="0.1"/>
</linearGradient>
<linearGradient id="paint5_linear_9234_15263" x1="693.576" y1="1107.65" x2="88.4509" y2="502.523" gradientUnits="userSpaceOnUse">
<stop stop-color="#FA0B53" stop-opacity="0.8"/>
<stop offset="1" stop-color="#FA0B53" stop-opacity="0.1"/>
</linearGradient>
<linearGradient id="paint6_linear_9234_15263" x1="206.217" y1="1117.5" x2="1777.63" y2="1117.5" gradientUnits="userSpaceOnUse">
<stop stop-color="#FA0B53" stop-opacity="0.4"/>
<stop offset="1" stop-color="#FA0B53" stop-opacity="0.2"/>
</linearGradient>
<clipPath id="clip0_9234_15263">
<rect width="1920" height="1080" fill="white"/>
</clipPath>
<clipPath id="clip1_9234_15263">
<rect width="1920" height="1080" fill="white"/>
</clipPath>
</defs>
</svg>
